<?xml version="1.0" standalone="no"?>
<!DOCTYPE svg PUBLIC "-//W3C//DTD SVG 20010904//EN"
 "http://www.w3.org/TR/2001/REC-SVG-20010904/DTD/svg10.dtd">
<svg version="1.0" xmlns="http://www.w3.org/2000/svg"
 width="391.000000pt" height="350.000000pt" viewBox="0 0 391.000000 350.000000"
 preserveAspectRatio="xMidYMid meet">

<g transform="translate(0.000000,350.000000) scale(0.100000,-0.100000)"
fill="#000000" stroke="none">
<path d="M1350 1748 l0 -403 605 3 605 2 0 400 0 400 -605 0 -605 0 0 -402z
m1181 97 c1 -157 1 -296 1 -310 0 -14 0 -28 -1 -32 -1 -4 -57 48 -124 115
l-124 124 -105 -106 c-58 -58 -111 -106 -118 -106 -7 0 -79 68 -160 150 -82
83 -152 150 -157 150 -4 0 -87 -79 -182 -174 -96 -96 -178 -173 -183 -170 -10
6 -10 628 -1 638 4 3 264 6 580 6 l573 0 1 -285z"/>
<path d="M2063 1955 c-27 -19 -39 -75 -23 -105 14 -27 63 -48 96 -42 32 6 64
48 64 84 0 63 -83 101 -137 63z"/>
</g>
</svg>
